<mxfile host="app.diagrams.net" agent="Mozilla/5.0 (Windows NT 10.0; Win64; x64) AppleWebKit/537.36 (KHTML, like Gecko) Chrome/132.0.0.0 YaBrowser/25.2.0.0 Safari/537.36" version="26.2.12">
  <diagram name="Page-1" id="smyI7X2A5dVe8MiWKBYw">
    <mxGraphModel dx="1172" dy="1782" grid="0" gridSize="10" guides="1" tooltips="1" connect="1" arrows="1" fold="1" page="1" pageScale="1" pageWidth="850" pageHeight="1100" math="0" shadow="0">
      <root>
        <mxCell id="0" />
        <mxCell id="1" parent="0" />
        <mxCell id="I61FL6yOEspSIrXMqx06-4" style="edgeStyle=orthogonalEdgeStyle;rounded=0;orthogonalLoop=1;jettySize=auto;html=1;exitX=0.75;exitY=1;exitDx=0;exitDy=0;entryX=0;entryY=0.5;entryDx=0;entryDy=0;" edge="1" parent="1" source="WSI-DR0SaIGXLMEpwzdS-1" target="WSI-DR0SaIGXLMEpwzdS-3">
          <mxGeometry relative="1" as="geometry" />
        </mxCell>
        <mxCell id="I61FL6yOEspSIrXMqx06-8" style="edgeStyle=orthogonalEdgeStyle;rounded=0;orthogonalLoop=1;jettySize=auto;html=1;exitX=0.25;exitY=1;exitDx=0;exitDy=0;entryX=1;entryY=0.5;entryDx=0;entryDy=0;" edge="1" parent="1" source="WSI-DR0SaIGXLMEpwzdS-1" target="WSI-DR0SaIGXLMEpwzdS-23">
          <mxGeometry relative="1" as="geometry" />
        </mxCell>
        <mxCell id="I61FL6yOEspSIrXMqx06-12" style="edgeStyle=orthogonalEdgeStyle;rounded=0;orthogonalLoop=1;jettySize=auto;html=1;exitX=1;exitY=0.25;exitDx=0;exitDy=0;entryX=0.5;entryY=1;entryDx=0;entryDy=0;" edge="1" parent="1" source="WSI-DR0SaIGXLMEpwzdS-1" target="WSI-DR0SaIGXLMEpwzdS-28">
          <mxGeometry relative="1" as="geometry" />
        </mxCell>
        <mxCell id="I61FL6yOEspSIrXMqx06-23" style="edgeStyle=orthogonalEdgeStyle;rounded=0;orthogonalLoop=1;jettySize=auto;html=1;exitX=0;exitY=0.25;exitDx=0;exitDy=0;entryX=0.5;entryY=1;entryDx=0;entryDy=0;" edge="1" parent="1" source="WSI-DR0SaIGXLMEpwzdS-1" target="I61FL6yOEspSIrXMqx06-21">
          <mxGeometry relative="1" as="geometry" />
        </mxCell>
        <mxCell id="WSI-DR0SaIGXLMEpwzdS-1" value="Хранить товары, управлять товародвижением на складе" style="rounded=1;whiteSpace=wrap;html=1;" parent="1" vertex="1">
          <mxGeometry x="560" y="-590" width="190" height="110" as="geometry" />
        </mxCell>
        <mxCell id="I61FL6yOEspSIrXMqx06-6" style="edgeStyle=orthogonalEdgeStyle;rounded=0;orthogonalLoop=1;jettySize=auto;html=1;exitX=0.25;exitY=0;exitDx=0;exitDy=0;entryX=0;entryY=0.75;entryDx=0;entryDy=0;" edge="1" parent="1" source="WSI-DR0SaIGXLMEpwzdS-22" target="WSI-DR0SaIGXLMEpwzdS-1">
          <mxGeometry relative="1" as="geometry" />
        </mxCell>
        <mxCell id="WSI-DR0SaIGXLMEpwzdS-22" value="" style="rounded=0;whiteSpace=wrap;html=1;fillColor=#000000;movable=1;resizable=1;rotatable=1;deletable=1;editable=1;locked=0;connectable=1;" parent="1" vertex="1">
          <mxGeometry x="310" y="-390" width="120" height="60" as="geometry" />
        </mxCell>
        <mxCell id="WSI-DR0SaIGXLMEpwzdS-23" value="" style="rounded=0;whiteSpace=wrap;html=1;movable=1;resizable=1;rotatable=1;deletable=1;editable=1;locked=0;connectable=1;container=0;" parent="1" vertex="1">
          <mxGeometry x="320" y="-380" width="120" height="60" as="geometry" />
        </mxCell>
        <mxCell id="WSI-DR0SaIGXLMEpwzdS-24" value="Поставщики" style="text;html=1;align=center;verticalAlign=middle;whiteSpace=wrap;rounded=0;movable=1;resizable=1;rotatable=1;deletable=1;editable=1;locked=0;connectable=1;container=0;" parent="1" vertex="1">
          <mxGeometry x="325" y="-365" width="110" height="30" as="geometry" />
        </mxCell>
        <mxCell id="WSI-DR0SaIGXLMEpwzdS-27" value="" style="rounded=0;whiteSpace=wrap;html=1;fillColor=#000000;movable=1;resizable=1;rotatable=1;deletable=1;editable=1;locked=0;connectable=1;container=0;" parent="1" vertex="1">
          <mxGeometry x="875" y="-790" width="120" height="60" as="geometry" />
        </mxCell>
        <mxCell id="WSI-DR0SaIGXLMEpwzdS-28" value="" style="rounded=0;whiteSpace=wrap;html=1;movable=1;resizable=1;rotatable=1;deletable=1;editable=1;locked=0;connectable=1;container=0;" parent="1" vertex="1">
          <mxGeometry x="885" y="-780" width="120" height="60" as="geometry" />
        </mxCell>
        <mxCell id="WSI-DR0SaIGXLMEpwzdS-29" value="Склад" style="text;html=1;align=center;verticalAlign=middle;whiteSpace=wrap;rounded=0;movable=1;resizable=1;rotatable=1;deletable=1;editable=1;locked=0;connectable=1;container=0;" parent="1" vertex="1">
          <mxGeometry x="890" y="-765" width="110" height="30" as="geometry" />
        </mxCell>
        <mxCell id="I61FL6yOEspSIrXMqx06-2" style="edgeStyle=orthogonalEdgeStyle;rounded=0;orthogonalLoop=1;jettySize=auto;html=1;exitX=0.5;exitY=0;exitDx=0;exitDy=0;entryX=1;entryY=0.75;entryDx=0;entryDy=0;" edge="1" parent="1" source="WSI-DR0SaIGXLMEpwzdS-3" target="WSI-DR0SaIGXLMEpwzdS-1">
          <mxGeometry relative="1" as="geometry" />
        </mxCell>
        <mxCell id="WSI-DR0SaIGXLMEpwzdS-3" value="" style="rounded=0;whiteSpace=wrap;html=1;fillColor=#000000;movable=1;resizable=1;rotatable=1;deletable=1;editable=1;locked=0;connectable=1;" parent="1" vertex="1">
          <mxGeometry x="880" y="-399.9999999999999" width="120" height="60" as="geometry" />
        </mxCell>
        <mxCell id="WSI-DR0SaIGXLMEpwzdS-4" value="" style="rounded=0;whiteSpace=wrap;html=1;movable=1;resizable=1;rotatable=1;deletable=1;editable=1;locked=0;connectable=1;" parent="1" vertex="1">
          <mxGeometry x="890" y="-389.9999999999999" width="120" height="60" as="geometry" />
        </mxCell>
        <mxCell id="WSI-DR0SaIGXLMEpwzdS-5" value="Бухгалтерия" style="text;html=1;align=center;verticalAlign=middle;whiteSpace=wrap;rounded=0;movable=1;resizable=1;rotatable=1;deletable=1;editable=1;locked=0;connectable=1;" parent="1" vertex="1">
          <mxGeometry x="895" y="-374.9999999999999" width="110" height="30" as="geometry" />
        </mxCell>
        <mxCell id="I61FL6yOEspSIrXMqx06-1" value="" style="endArrow=none;html=1;rounded=0;entryX=0;entryY=0.25;entryDx=0;entryDy=0;exitX=1;exitY=0.25;exitDx=0;exitDy=0;" edge="1" parent="1">
          <mxGeometry width="50" height="50" relative="1" as="geometry">
            <mxPoint x="750" y="-570" as="sourcePoint" />
            <mxPoint x="560" y="-570" as="targetPoint" />
          </mxGeometry>
        </mxCell>
        <mxCell id="I61FL6yOEspSIrXMqx06-3" value="Накладные на внутреннее перемещение товаров при возврате на склад&lt;div&gt;&lt;br&gt;&lt;/div&gt;" style="text;html=1;align=center;verticalAlign=middle;whiteSpace=wrap;rounded=0;" vertex="1" parent="1">
          <mxGeometry x="940" y="-460" width="90" height="10" as="geometry" />
        </mxCell>
        <mxCell id="I61FL6yOEspSIrXMqx06-5" value="Накладные на внутреннее перемещение товаров со склада в торговый зал&lt;div&gt;&lt;br&gt;&lt;/div&gt;" style="text;html=1;align=center;verticalAlign=middle;whiteSpace=wrap;rounded=0;" vertex="1" parent="1">
          <mxGeometry x="690" y="-360" width="150" height="75" as="geometry" />
        </mxCell>
        <mxCell id="I61FL6yOEspSIrXMqx06-7" value="Заявка на закупку&lt;div&gt;&lt;br&gt;&lt;/div&gt;" style="text;html=1;align=center;verticalAlign=middle;whiteSpace=wrap;rounded=0;" vertex="1" parent="1">
          <mxGeometry x="420" y="-500" width="60" height="30" as="geometry" />
        </mxCell>
        <mxCell id="I61FL6yOEspSIrXMqx06-9" value="Товары, принятые от поставщика на склад" style="text;html=1;align=center;verticalAlign=middle;whiteSpace=wrap;rounded=0;" vertex="1" parent="1">
          <mxGeometry x="470" y="-337.5" width="110" height="30" as="geometry" />
        </mxCell>
        <mxCell id="I61FL6yOEspSIrXMqx06-10" style="edgeStyle=orthogonalEdgeStyle;rounded=0;orthogonalLoop=1;jettySize=auto;html=1;exitX=0;exitY=0.5;exitDx=0;exitDy=0;entryX=0.823;entryY=0.018;entryDx=0;entryDy=0;entryPerimeter=0;" edge="1" parent="1" source="WSI-DR0SaIGXLMEpwzdS-27" target="WSI-DR0SaIGXLMEpwzdS-1">
          <mxGeometry relative="1" as="geometry" />
        </mxCell>
        <mxCell id="I61FL6yOEspSIrXMqx06-11" value="Заявка на перемещение товара в торговый зал" style="text;html=1;align=center;verticalAlign=middle;whiteSpace=wrap;rounded=0;" vertex="1" parent="1">
          <mxGeometry x="730" y="-795" width="140" height="30" as="geometry" />
        </mxCell>
        <mxCell id="I61FL6yOEspSIrXMqx06-13" value="Товары, возвращенные из торгового зала" style="text;html=1;align=center;verticalAlign=middle;whiteSpace=wrap;rounded=0;" vertex="1" parent="1">
          <mxGeometry x="810" y="-610" width="130" height="30" as="geometry" />
        </mxCell>
        <mxCell id="I61FL6yOEspSIrXMqx06-17" value="" style="rounded=0;whiteSpace=wrap;html=1;fillColor=#000000;movable=1;resizable=1;rotatable=1;deletable=1;editable=1;locked=0;connectable=1;container=0;" vertex="1" parent="1">
          <mxGeometry x="540" y="-835" width="120" height="60" as="geometry" />
        </mxCell>
        <mxCell id="I61FL6yOEspSIrXMqx06-26" style="edgeStyle=orthogonalEdgeStyle;rounded=0;orthogonalLoop=1;jettySize=auto;html=1;exitX=0.5;exitY=1;exitDx=0;exitDy=0;" edge="1" parent="1" source="I61FL6yOEspSIrXMqx06-18">
          <mxGeometry relative="1" as="geometry">
            <mxPoint x="610.3334045410156" y="-588.6666564941406" as="targetPoint" />
          </mxGeometry>
        </mxCell>
        <mxCell id="I61FL6yOEspSIrXMqx06-18" value="" style="rounded=0;whiteSpace=wrap;html=1;movable=1;resizable=1;rotatable=1;deletable=1;editable=1;locked=0;connectable=1;container=0;" vertex="1" parent="1">
          <mxGeometry x="550" y="-825" width="120" height="60" as="geometry" />
        </mxCell>
        <mxCell id="I61FL6yOEspSIrXMqx06-19" value="Руководство" style="text;html=1;align=center;verticalAlign=middle;whiteSpace=wrap;rounded=0;movable=1;resizable=1;rotatable=1;deletable=1;editable=1;locked=0;connectable=1;container=0;" vertex="1" parent="1">
          <mxGeometry x="555" y="-810" width="110" height="30" as="geometry" />
        </mxCell>
        <mxCell id="I61FL6yOEspSIrXMqx06-20" value="" style="rounded=0;whiteSpace=wrap;html=1;fillColor=#000000;movable=1;resizable=1;rotatable=1;deletable=1;editable=1;locked=0;connectable=1;container=0;" vertex="1" parent="1">
          <mxGeometry x="295" y="-790" width="120" height="60" as="geometry" />
        </mxCell>
        <mxCell id="I61FL6yOEspSIrXMqx06-21" value="" style="rounded=0;whiteSpace=wrap;html=1;movable=1;resizable=1;rotatable=1;deletable=1;editable=1;locked=0;connectable=1;container=0;" vertex="1" parent="1">
          <mxGeometry x="305" y="-780" width="120" height="60" as="geometry" />
        </mxCell>
        <mxCell id="I61FL6yOEspSIrXMqx06-22" value="Торговый зал" style="text;html=1;align=center;verticalAlign=middle;whiteSpace=wrap;rounded=0;movable=1;resizable=1;rotatable=1;deletable=1;editable=1;locked=0;connectable=1;container=0;" vertex="1" parent="1">
          <mxGeometry x="310" y="-765" width="110" height="30" as="geometry" />
        </mxCell>
        <mxCell id="I61FL6yOEspSIrXMqx06-24" value="Перемещение товара со склада" style="text;html=1;align=center;verticalAlign=middle;whiteSpace=wrap;rounded=0;" vertex="1" parent="1">
          <mxGeometry x="420" y="-600" width="60" height="30" as="geometry" />
        </mxCell>
        <mxCell id="I61FL6yOEspSIrXMqx06-27" value="Ценовая политика" style="text;html=1;align=center;verticalAlign=middle;whiteSpace=wrap;rounded=0;" vertex="1" parent="1">
          <mxGeometry x="540" y="-710" width="60" height="30" as="geometry" />
        </mxCell>
      </root>
    </mxGraphModel>
  </diagram>
</mxfile>
